<svg width="89" height="88" viewBox="0 0 89 88" fill="none" xmlns="http://www.w3.org/2000/svg">
<path d="M71.8033 17.0945H82.0088L82.7892 28.9808L82.0088 34.7439H72.1635L68.5016 37.3853L63.2188 40.507H48.3909L46.71 37.8055L47.6105 34.7439L45.6894 34.1436L44.5488 32.0425L45.2692 28.9808L42.5078 28.1404L40.8869 26.4595L41.7874 23.0977H43.9485L42.5078 20.3963L43.4682 17.0945L50.9723 16.5542V14.0929L53.5536 12.1118H64.8396L68.8618 14.7532L71.8033 17.0945Z" fill="white"/>
<path d="M20.9563 28.9808L29.6009 20.3963L36.372 26.2834L39.4804 29.0439L39.9676 32.0828L32.5212 38.8332L30.039 38.4621L23.6597 30.9229L20.4956 29.9622V51.8918L32.4208 51.4276L33.1189 52.6492L31.141 52.9982V75.8016L29.9194 78.0703L26.3709 79.8154H12.2934L9.03574 78.652L7.23242 74.9872V51.8918H18.8819V29.1814L19.9459 28.1404L20.9563 28.9808Z" fill="white"/>
<path d="M31.2628 52.6243V74.4127C31.2628 77.4219 28.8228 79.8619 25.8136 79.8619H12.6753C9.66608 79.8619 7.22607 77.4219 7.22607 74.4127V52.6243" stroke="#222222" stroke-width="1.5" stroke-linecap="round" stroke-linejoin="round"/>
<path d="M31.3228 71.784C37.5215 71.784 37.8019 68.4 37.8019 65.8027V57.8877C37.8019 54.7955 33.7543 54.5667 31.2656 54.5667" stroke="#222222" stroke-width="1.5" stroke-linecap="round" stroke-linejoin="round"/>
<path d="M29.1489 65.3337V74.001C29.1489 76.135 27.4183 77.8627 25.2872 77.8627H13.2044C11.0705 77.8627 9.34277 76.1321 9.34277 74.001V65.3366H29.1489V65.3337Z" fill="#222222"/>
<path d="M52.6222 22.9209H45.2678C43.6573 22.9209 42.3501 21.6136 42.3501 20.0032C42.3501 18.3927 43.6573 17.0854 45.2678 17.0854H59.6247" stroke="#222222" stroke-width="1.5" stroke-linecap="round" stroke-linejoin="round"/>
<path d="M52.6224 22.9211H43.8664C42.256 22.9211 40.9487 24.2284 40.9487 25.8389C40.9487 27.4493 42.256 28.7566 43.8664 28.7566H52.6224" stroke="#222222" stroke-width="1.5" stroke-linecap="round" stroke-linejoin="round"/>
<path d="M52.6222 28.7563H47.3703C45.7599 28.7563 44.4526 30.0636 44.4526 31.6741C44.4526 33.2845 45.7599 34.5918 47.3703 34.5918H52.6222" stroke="#222222" stroke-width="1.5" stroke-linecap="round" stroke-linejoin="round"/>
<path d="M50.7456 17.0856C50.7456 14.0964 52.0614 12.054 54.6559 12.054H63.1516C64.2987 12.054 65.4085 12.32 66.4126 12.812C67.3222 13.2582 68.1403 13.8875 68.8125 14.6856L69.3646 15.3407C70.2914 16.4448 71.6673 17.0856 73.1061 17.0856H76.6675C76.6675 17.0856 81.4788 17.0884 81.4903 17.0913" stroke="#222222" stroke-width="1.5" stroke-linecap="round" stroke-linejoin="round"/>
<path d="M52.6196 34.5948H49.7019C48.0943 34.5948 46.7842 35.8992 46.7842 37.5125C46.7842 38.3163 47.1074 39.0428 47.6395 39.5749C48.1715 40.1069 48.8981 40.433 49.7019 40.433H60.8693C62.8487 40.433 64.7739 39.8409 66.3958 38.7596C66.9392 38.3964 67.4456 37.9816 67.9118 37.5125C68.8472 36.58 69.9485 35.8534 71.1413 35.3528C72.3427 34.8551 73.6328 34.5948 74.9544 34.5948H76.6678C76.6678 34.5948 81.4792 34.5948 81.4906 34.5862" stroke="#222222" stroke-width="1.5" stroke-linecap="round" stroke-linejoin="round"/>
<path d="M46.1146 17.0686C39.9759 17.0686 37.3529 17.2402 35.4678 19.1253L23.7197 30.8734" stroke="#222222" stroke-width="1.5" stroke-linecap="round" stroke-linejoin="round"/>
<path d="M18.9712 31.6225L19.0627 31.3879" stroke="#222222" stroke-width="0.8" stroke-linecap="round" stroke-linejoin="round"/>
<path d="M19.9727 29.6201L20.0642 29.3855" stroke="#222222" stroke-width="0.8" stroke-linecap="round" stroke-linejoin="round"/>
<path d="M18.9712 35.6274L19.0627 35.3928" stroke="#222222" stroke-width="0.8" stroke-linecap="round" stroke-linejoin="round"/>
<path d="M19.9727 33.6252L20.0642 33.3906" stroke="#222222" stroke-width="0.8" stroke-linecap="round" stroke-linejoin="round"/>
<path d="M18.9712 31.6227L19.0627 31.3882" stroke="#222222" stroke-width="0.8" stroke-linecap="round" stroke-linejoin="round"/>
<path d="M18.9712 39.632L19.0627 39.3975" stroke="#222222" stroke-width="0.8" stroke-linecap="round" stroke-linejoin="round"/>
<path d="M19.9727 37.6298L20.0642 37.3953" stroke="#222222" stroke-width="0.8" stroke-linecap="round" stroke-linejoin="round"/>
<path d="M18.9712 35.6274L19.0627 35.3928" stroke="#222222" stroke-width="0.8" stroke-linecap="round" stroke-linejoin="round"/>
<path d="M18.9712 43.6364L19.0627 43.4019" stroke="#222222" stroke-width="0.8" stroke-linecap="round" stroke-linejoin="round"/>
<path d="M19.9727 41.634L20.0642 41.3994" stroke="#222222" stroke-width="0.8" stroke-linecap="round" stroke-linejoin="round"/>
<path d="M18.9712 39.6318L19.0627 39.3972" stroke="#222222" stroke-width="0.8" stroke-linecap="round" stroke-linejoin="round"/>
<path d="M18.9712 47.6411L19.0627 47.4065" stroke="#222222" stroke-width="0.8" stroke-linecap="round" stroke-linejoin="round"/>
<path d="M19.9727 45.6389L20.0642 45.4043" stroke="#222222" stroke-width="0.8" stroke-linecap="round" stroke-linejoin="round"/>
<path d="M18.9712 43.6364L19.0627 43.4019" stroke="#222222" stroke-width="0.8" stroke-linecap="round" stroke-linejoin="round"/>
<path d="M18.9712 51.6459L19.0627 51.4114" stroke="#222222" stroke-width="0.8" stroke-linecap="round" stroke-linejoin="round"/>
<path d="M19.9727 49.6435L20.0642 49.4089" stroke="#222222" stroke-width="0.8" stroke-linecap="round" stroke-linejoin="round"/>
<path d="M18.9712 47.6411L19.0627 47.4065" stroke="#222222" stroke-width="0.8" stroke-linecap="round" stroke-linejoin="round"/>
<path d="M18.9712 55.6506L19.0627 55.416" stroke="#222222" stroke-width="0.8" stroke-linecap="round" stroke-linejoin="round"/>
<path d="M19.9722 53.6481L20.0637 53.4136" stroke="#222222" stroke-width="0.8" stroke-linecap="round" stroke-linejoin="round"/>
<path d="M18.9712 51.6459L19.0627 51.4114" stroke="#222222" stroke-width="0.8" stroke-linecap="round" stroke-linejoin="round"/>
<path d="M28.9829 63.6603L29.0744 63.4258" stroke="#222222" stroke-width="0.8" stroke-linecap="round" stroke-linejoin="round"/>
<path d="M27.9819 61.6579L28.0735 61.4233" stroke="#222222" stroke-width="0.8" stroke-linecap="round" stroke-linejoin="round"/>
<path d="M28.9829 59.6557L29.0744 59.4211" stroke="#222222" stroke-width="0.8" stroke-linecap="round" stroke-linejoin="round"/>
<path d="M28.9834 63.6601L29.0749 63.4255" stroke="#222222" stroke-width="0.8" stroke-linecap="round" stroke-linejoin="round"/>
<path d="M26.981 63.6601L27.0725 63.4255" stroke="#222222" stroke-width="0.8" stroke-linecap="round" stroke-linejoin="round"/>
<path d="M24.9785 63.6601L25.07 63.4255" stroke="#222222" stroke-width="0.8" stroke-linecap="round" stroke-linejoin="round"/>
<path d="M27.9824 61.6577L28.074 61.4231" stroke="#222222" stroke-width="0.8" stroke-linecap="round" stroke-linejoin="round"/>
<path d="M25.98 61.6577L26.0715 61.4231" stroke="#222222" stroke-width="0.8" stroke-linecap="round" stroke-linejoin="round"/>
<path d="M23.9775 61.6577L24.0691 61.4231" stroke="#222222" stroke-width="0.8" stroke-linecap="round" stroke-linejoin="round"/>
<path d="M26.981 59.6555L27.0725 59.4209" stroke="#222222" stroke-width="0.8" stroke-linecap="round" stroke-linejoin="round"/>
<path d="M24.9785 59.6555L25.07 59.4209" stroke="#222222" stroke-width="0.8" stroke-linecap="round" stroke-linejoin="round"/>
<path d="M22.9761 63.6603L23.0676 63.4258" stroke="#222222" stroke-width="0.8" stroke-linecap="round" stroke-linejoin="round"/>
<path d="M20.9741 63.6603L21.0657 63.4258" stroke="#222222" stroke-width="0.8" stroke-linecap="round" stroke-linejoin="round"/>
<path d="M23.9775 61.6579L24.0691 61.4233" stroke="#222222" stroke-width="0.8" stroke-linecap="round" stroke-linejoin="round"/>
<path d="M21.9751 61.6579L22.0666 61.4233" stroke="#222222" stroke-width="0.8" stroke-linecap="round" stroke-linejoin="round"/>
<path d="M19.9727 61.6579L20.0642 61.4233" stroke="#222222" stroke-width="0.8" stroke-linecap="round" stroke-linejoin="round"/>
<path d="M22.9761 59.6557L23.0676 59.4211" stroke="#222222" stroke-width="0.8" stroke-linecap="round" stroke-linejoin="round"/>
<path d="M20.9741 59.6557L21.0657 59.4211" stroke="#222222" stroke-width="0.8" stroke-linecap="round" stroke-linejoin="round"/>
<path d="M18.9712 63.6603L19.0627 63.4258" stroke="#222222" stroke-width="0.8" stroke-linecap="round" stroke-linejoin="round"/>
<path d="M16.9688 63.6603L17.0603 63.4258" stroke="#222222" stroke-width="0.8" stroke-linecap="round" stroke-linejoin="round"/>
<path d="M19.9722 61.6579L20.0637 61.4233" stroke="#222222" stroke-width="0.8" stroke-linecap="round" stroke-linejoin="round"/>
<path d="M17.9702 61.6579L18.0618 61.4233" stroke="#222222" stroke-width="0.8" stroke-linecap="round" stroke-linejoin="round"/>
<path d="M15.9678 61.6579L16.0593 61.4233" stroke="#222222" stroke-width="0.8" stroke-linecap="round" stroke-linejoin="round"/>
<path d="M18.9712 59.6557L19.0627 59.4211" stroke="#222222" stroke-width="0.8" stroke-linecap="round" stroke-linejoin="round"/>
<path d="M16.9688 59.6557L17.0603 59.4211" stroke="#222222" stroke-width="0.8" stroke-linecap="round" stroke-linejoin="round"/>
<path d="M18.9717 63.6603L19.0632 63.4258" stroke="#222222" stroke-width="0.8" stroke-linecap="round" stroke-linejoin="round"/>
<path d="M16.9692 63.6603L17.0608 63.4258" stroke="#222222" stroke-width="0.8" stroke-linecap="round" stroke-linejoin="round"/>
<path d="M14.9668 59.6557L15.0583 59.4211" stroke="#222222" stroke-width="0.8" stroke-linecap="round" stroke-linejoin="round"/>
<path d="M12.9644 59.6557L13.0559 59.4211" stroke="#222222" stroke-width="0.8" stroke-linecap="round" stroke-linejoin="round"/>
<path d="M14.9668 63.6603L15.0583 63.4258" stroke="#222222" stroke-width="0.8" stroke-linecap="round" stroke-linejoin="round"/>
<path d="M12.9644 63.6603L13.0559 63.4258" stroke="#222222" stroke-width="0.8" stroke-linecap="round" stroke-linejoin="round"/>
<path d="M15.9683 61.6579L16.0598 61.4233" stroke="#222222" stroke-width="0.8" stroke-linecap="round" stroke-linejoin="round"/>
<path d="M13.9658 61.6579L14.0574 61.4233" stroke="#222222" stroke-width="0.8" stroke-linecap="round" stroke-linejoin="round"/>
<path d="M11.9634 61.6579L12.0549 61.4233" stroke="#222222" stroke-width="0.8" stroke-linecap="round" stroke-linejoin="round"/>
<path d="M14.9668 59.6557L15.0583 59.4211" stroke="#222222" stroke-width="0.8" stroke-linecap="round" stroke-linejoin="round"/>
<path d="M12.9644 59.6557L13.0559 59.4211" stroke="#222222" stroke-width="0.8" stroke-linecap="round" stroke-linejoin="round"/>
<path d="M14.9668 63.6603L15.0583 63.4258" stroke="#222222" stroke-width="0.8" stroke-linecap="round" stroke-linejoin="round"/>
<path d="M12.9644 63.6603L13.0559 63.4258" stroke="#222222" stroke-width="0.8" stroke-linecap="round" stroke-linejoin="round"/>
<path d="M10.9619 59.6555L11.0535 59.4209" stroke="#222222" stroke-width="0.8" stroke-linecap="round" stroke-linejoin="round"/>
<path d="M10.9619 63.6603L11.0535 63.4258" stroke="#222222" stroke-width="0.8" stroke-linecap="round" stroke-linejoin="round"/>
<path d="M11.9634 61.6579L12.0549 61.4233" stroke="#222222" stroke-width="0.8" stroke-linecap="round" stroke-linejoin="round"/>
<path d="M9.96094 61.6579L10.0525 61.4233" stroke="#222222" stroke-width="0.8" stroke-linecap="round" stroke-linejoin="round"/>
<path d="M10.9619 59.6557L11.0535 59.4211" stroke="#222222" stroke-width="0.8" stroke-linecap="round" stroke-linejoin="round"/>
<path d="M10.9619 63.6601L11.0535 63.4255" stroke="#222222" stroke-width="0.8" stroke-linecap="round" stroke-linejoin="round"/>
<path d="M23.7197 30.876L29.106 37.5867C30.3732 39.1657 32.7332 39.2945 34.1634 37.8642L39.0091 33.0185C40.4393 31.5883 40.3135 29.237 38.7402 27.9669L32.0381 22.5605" stroke="#222222" stroke-width="1.5" stroke-linecap="round" stroke-linejoin="round"/>
<path d="M23.508 30.6644L20.3242 29.3886L29.2862 20.4267C29.6838 20.0291 30.356 20.1635 30.5705 20.6841L31.8291 22.3432" stroke="#222222" stroke-width="1.5" stroke-linecap="round" stroke-linejoin="round"/>
<path d="M36.9927 31.6227L37.0842 31.3882" stroke="#222222" stroke-width="0.8" stroke-linecap="round" stroke-linejoin="round"/>
<path d="M34.9902 31.6227L35.0818 31.3882" stroke="#222222" stroke-width="0.8" stroke-linecap="round" stroke-linejoin="round"/>
<path d="M32.9878 31.6227L33.0793 31.3882" stroke="#222222" stroke-width="0.8" stroke-linecap="round" stroke-linejoin="round"/>
<path d="M32.9878 35.6276L33.0793 35.3931" stroke="#222222" stroke-width="0.8" stroke-linecap="round" stroke-linejoin="round"/>
<path d="M33.9893 33.6252L34.0808 33.3906" stroke="#222222" stroke-width="0.8" stroke-linecap="round" stroke-linejoin="round"/>
<path d="M31.9868 33.6252L32.0784 33.3906" stroke="#222222" stroke-width="0.8" stroke-linecap="round" stroke-linejoin="round"/>
<path d="M30.9858 31.6227L31.0774 31.3882" stroke="#222222" stroke-width="0.8" stroke-linecap="round" stroke-linejoin="round"/>
<path d="M28.9834 31.6227L29.0749 31.3882" stroke="#222222" stroke-width="0.8" stroke-linecap="round" stroke-linejoin="round"/>
<path d="M30.9854 35.6276L31.0769 35.3931" stroke="#222222" stroke-width="0.8" stroke-linecap="round" stroke-linejoin="round"/>
<path d="M29.9844 33.6252L30.0759 33.3906" stroke="#222222" stroke-width="0.8" stroke-linecap="round" stroke-linejoin="round"/>
<path d="M30.9854 35.6274L31.0769 35.3928" stroke="#222222" stroke-width="0.8" stroke-linecap="round" stroke-linejoin="round"/>
<path d="M26.981 31.6227L27.0725 31.3882" stroke="#222222" stroke-width="0.8" stroke-linecap="round" stroke-linejoin="round"/>
<path d="M30.2023 35.7921L26.6589 31.3762H37.6295C37.5298 31.685 37.3575 31.975 37.1108 32.2218L33.3664 35.9662C32.4703 36.8623 30.9976 36.7819 30.2025 35.7923C30.2024 35.7922 30.2023 35.7922 30.2023 35.7921Z" stroke="#222222" stroke-linecap="round" stroke-linejoin="round"/>
<path d="M72.8315 36.7229C73.8442 40.4616 75.3488 42.8301 77.0336 42.8301C79.2248 42.8301 81.1127 38.8168 82.0052 33.0014C82.357 30.7273 82.5515 28.1786 82.5515 25.484C82.5515 22.7923 82.3599 20.2407 82.0052 17.9666C81.1127 12.1512 79.2248 8.13794 77.0336 8.13794C75.3659 8.13794 73.867 10.4721 72.8544 14.1564" stroke="#222222" stroke-width="1.5" stroke-linecap="round" stroke-linejoin="round"/>
<path d="M33.1966 51.6411C33.1966 51.2606 32.9506 50.9556 32.6503 50.9556H5.83884C5.53562 50.9556 5.29248 51.2642 5.29248 51.6411C5.29248 52.0215 5.53848 52.3265 5.83884 52.3265H32.6503C32.9535 52.3265 33.1966 52.0179 33.1966 51.6411Z" stroke="#222222" stroke-linecap="round" stroke-linejoin="round"/>
<path d="M20.3358 51.5289H18.917V29.6575C18.917 28.7479 19.5749 27.8354 21.1653 28.4561L20.3358 29.3085V51.5289Z" stroke="#222222" stroke-linecap="round" stroke-linejoin="round"/>
<path d="M29.2434 57.673V74.6186C29.2434 76.4522 27.7559 77.9368 25.9223 77.9368H12.5438C10.713 77.9368 9.22559 76.4522 9.22559 74.6186V57.673H18.917V52.6243H20.3358V57.673H29.2434Z" stroke="#222222" stroke-linecap="round" stroke-linejoin="round"/>
</svg>
